Coordinates
version=1
nRows=16
nColumns=36
inDegrees=yes

Units are S.I. units (second, meters, Newtons, ...)
If the header above contains a line with 'inDegrees', this indicates whether rotational values are in degrees (yes) or radians (no).

endheader
time	pelvis_tilt	pelvis_list	pelvis_rotation	pelvis_tx	pelvis_ty	pelvis_tz	hip_flexion_r	hip_adduction_r	hip_rotation_r	knee_angle_r	knee_angle_r_beta	ankle_angle_r	subtalar_angle_r	mtp_angle_r	hip_flexion_l	hip_adduction_l	hip_rotation_l	knee_angle_l	knee_angle_l_beta	ankle_angle_l	subtalar_angle_l	mtp_angle_l	lumbar_extension	lumbar_bending	lumbar_rotation	arm_flex_r	arm_add_r	arm_rot_r	elbow_flex_r	pro_sup_r	arm_flex_l	arm_add_l	arm_rot_l	elbow_flex_l	pro_sup_l
      4.65000000	     -9.71608288	      0.31331462	     -2.74737544	      0.52763518	      0.85040779	      0.09040617	     11.93662984	     -6.72229963	    -11.16454909	      8.12803098	      0.14186090	      3.79450341	    -12.30892491	     -7.49999987	     13.34721275	     -7.04819185	    -11.12841040	      7.93507179	      0.13849313	      6.66900661	      4.80452141	     -7.49999987	      2.87941778	     -1.02658717	      1.80191481	     37.03482948	     -3.61787545	     65.48412867	    127.59453959	     83.84096669	     48.79359027	      4.12397229	     68.97000635	    128.82478011	     65.96768887
      4.66666670	     -9.75866936	      0.20109301	     -2.78239693	      0.52786475	      0.84881223	      0.09042476	     11.93751036	     -6.54848023	    -11.14214886	      8.11144065	      0.14157135	      3.89087228	    -12.35584308	     -7.49999987	     13.07060436	     -7.13746273	    -10.79438921	      7.43465802	      0.12975926	      6.78785038	      4.79261500	     -7.49999987	      3.35598207	     -0.91252700	      1.80565866	     36.64791179	     -3.68141610	     65.63945717	    127.65324108	     83.64816415	     48.41214651	      4.01007472	     69.09437084	    128.91864451	     65.95657869
      4.68333330	     -9.43312817	      0.14092327	     -2.84013030	      0.52705306	      0.85024670	      0.09070830	     11.63090958	     -6.43807138	    -11.01226191	      8.15602057	      0.14234941	      3.71008228	    -12.63966800	     -7.49999987	     12.19300297	     -7.08542555	    -10.59367704	      6.47290098	      0.11297343	      6.45848236	      4.56512809	     -7.49999987	      3.16186994	     -0.79874923	      1.80657274	     36.61191264	     -3.63741739	     65.99797878	    127.54633084	     82.08647453	     48.10158730	      3.70458758	     69.32077675	    129.18808876	     65.79943309
      4.70000000	     -9.38436198	      0.05120911	     -2.90459218	      0.53123272	      0.85108377	      0.08856627	     11.60989580	     -6.38214586	    -11.03394852	      8.32293534	      0.14526263	      3.63790107	    -12.73776614	     -7.49999987	     11.77709039	     -7.12398946	    -10.56596362	      5.97401148	      0.10426617	      6.59778443	      4.55229126	     -7.49999987	      3.35824155	     -0.63632847	      1.76166594	     36.40757128	     -3.74585828	     66.08807183	    127.49294303	     82.13966228	     47.82233355	      3.55144191	     69.42233578	    129.07344719	     65.83563746
      4.71666670	     -9.25191682	      0.03096722	     -3.09941426	      0.53424689	      0.85046047	      0.09220877	     11.39594617	     -6.28043154	    -10.78023750	      8.28005014	      0.14451414	      3.56625220	    -12.84700473	     -7.49999987	     11.02408242	     -7.13987223	    -10.72672018	      5.19964778	      0.09075097	      6.22702441	      4.62320540	     -7.49999987	      3.50138414	     -0.61835679	      1.82813133	     36.17173936	     -3.69092146	     66.30661928	    127.38336135	     82.24890110	     47.41909151	      3.39935099	     69.46293483	    128.92374087	     65.93757150
      4.73333330	     -9.00649509	     -0.04257108	     -3.28659508	      0.53431198	      0.84868344	      0.09150781	     11.08803488	     -6.18178312	    -10.69347324	      8.31465600	      0.14511812	      3.53310441	    -12.92850003	     -7.49999987	     10.21293229	     -7.17306958	    -10.80984409	      4.52969625	      0.07905811	      6.17311887	      4.62211199	     -7.49999987	      3.47309366	     -0.49726843	      1.90432655	     36.35698739	     -3.53796594	     66.56208220	    127.31377786	     81.60574061	     47.28056298	      3.24905657	     69.33155830	    129.09742770	     66.08633797
      4.75000000	     -9.02209030	     -0.14188368	     -3.40078954	      0.53761774	      0.85194075	      0.09524945	     10.91947582	     -5.93054987	    -10.56163089	      8.22297107	      0.14351792	      3.67228568	    -12.96573781	     -7.49999987	      9.73483599	     -7.34001425	    -10.83100506	      3.95662233	      0.06905609	      6.28462953	      4.63104030	     -7.49999987	      3.80144058	     -0.45962598	      2.08794060	     36.11241074	     -3.43502042	     66.66923328	    127.26561514	     81.64710222	     46.98280980	      3.09050106	     69.42800742	    129.12753072	     66.14173321
      4.76666670	     -8.76824387	     -0.17973398	     -3.61345410	      0.53792518	      0.85215015	      0.09491408	     10.47399702	     -5.78912799	    -10.39273399	      8.03860238	      0.14030008	      3.64282209	    -12.87861702	     -7.49999987	      8.92559176	     -7.38500860	    -11.11558557	      3.30012541	      0.05759805	      5.97921449	      4.83379162	     -7.49999987	      3.70964796	     -0.40840958	      2.27911659	     36.02284626	     -3.35105597	     66.70409228	    127.07665800	     81.15647672	     46.77713506	      2.91611351	     69.38605754	    129.42849448	     66.18457891
      4.78333330	     -8.65818347	     -0.26630831	     -3.76282089	      0.53741004	      0.85274045	      0.09524053	     10.20298047	     -5.59750646	    -10.29084555	      7.76379869	      0.13550385	      3.63394059	    -12.80497997	     -7.49999987	      8.42513814	     -7.50417343	    -11.28264687	      2.79689871	      0.04881509	      5.90122739	      5.18296949	     -7.49999987	      3.75956890	     -0.38605297	      2.41288955	     36.13387715	     -3.24334332	     67.03419710	    127.07528725	     80.25801521	     46.68011172	      2.81733547	     69.37823421	    129.53515782	     66.15471509
      4.80000000	     -8.64039031	     -0.32883359	     -3.88541428	      0.53785874	      0.85407804	      0.09466696	     10.06047654	     -5.45769915	    -10.24446573	      7.53239756	      0.13146514	      3.63249710	    -12.54391903	     -7.49999987	      8.17239530	     -7.58367135	    -11.32125054	      2.50361890	      0.04369639	      5.82470626	      5.31002308	     -7.49999987	      3.90223981	     -0.35376589	      2.46974755	     36.19883751	     -2.87624219	     67.69397512	    127.13388529	     79.35872977	     46.65459696	      2.90821365	     69.31350595	    129.61746896	     66.04784600
      4.81666670	     -8.38926454	     -0.37123336	     -4.07868981	      0.53753850	      0.85676230	      0.09560416	      9.68773186	     -5.35364393	    -10.10134664	      7.22392337	      0.12608125	      3.54228891	    -12.34209013	     -7.49999987	      7.75703346	     -7.64216691	    -11.54324259	      2.34864249	      0.04099154	      5.75323951	      5.66990747	     -7.49999987	      3.67185392	     -0.33697984	      2.49166386	     36.43843641	     -2.62267015	     68.32532109	    126.88720881	     78.65920686	     46.82723148	      2.88833276	     69.25019755	    129.58751652	     66.08433574
      4.83333330	     -8.35694530	     -0.38061445	     -4.18189811	      0.53777478	      0.85612670	      0.09523036	      9.59535912	     -5.31014214	    -10.02799245	      6.90672239	      0.12054505	      3.37929594	    -12.24022456	     -7.49999987	      7.60833568	     -7.63822192	    -11.77832351	      2.18872019	      0.03820037	      5.67928128	      5.98353271	     -7.49999987	      3.64821683	     -0.31994271	      2.49180124	     36.21792361	     -2.60151413	     68.39408303	    126.72436477	     81.58929729	     46.76000084	      2.97246893	     69.10043513	    129.57339444	     67.85337041
      4.85000000	     -8.28875521	     -0.39889909	     -4.25537537	      0.53720009	      0.85402287	      0.09519383	      9.51214580	     -5.25464843	     -9.90556747	      6.80996809	      0.11885637	      3.45255277	    -12.07103581	     -7.49999987	      7.52814289	     -7.65733037	    -11.76137703	      2.20533534	      0.03849036	      5.75691353	      5.96668344	     -7.49999987	      3.56438088	     -0.30905694	      2.49082500	     36.32059105	     -2.80987509	     68.39617410	    126.69462567	     81.87917872	     47.05835901	      2.99048755	     69.02861515	    129.53131932	     67.77551212
      4.86666670	     -8.18022798	     -0.43113212	     -4.36451272	      0.53759840	      0.85380939	      0.09491615	      9.42531024	     -5.22957534	     -9.94366135	      6.82684787	      0.11915097	      3.48809506	    -11.90396966	     -7.49999987	      7.43922059	     -7.69470010	    -11.86957279	      2.26056967	      0.03945438	      5.87369086	      6.01131583	     -7.49999987	      3.42296756	     -0.22782876	      2.50897531	     36.54293100	     -3.15117591	     68.23239383	    126.63570787	     80.71829361	     47.34410541	      2.99541803	     68.88419036	    129.37924524	     67.43006137
      4.88333330	     -8.18228850	     -0.39143355	     -4.50398466	      0.53725410	      0.85443921	      0.09541065	      9.50691627	     -5.26451206	     -9.78827292	      6.82636060	      0.11914247	      3.52542581	    -11.99501655	     -7.49999987	      7.50029987	     -7.65047009	    -12.15250211	      2.30350612	      0.04020377	      5.97210705	      5.95629938	     -7.49999987	      3.39178836	     -0.24537109	      2.66069826	     36.61777585	     -3.44196549	     67.91786631	    126.66444580	     82.01996411	     47.54108895	      3.03655274	     68.79427982	    129.36897956	     67.65306691
      4.90000000	     -8.16619599	     -0.36601192	     -4.56317186	      0.54142190	      0.85660558	      0.09850299	      9.40246895	     -5.22198823	     -9.72843445	      6.70956541	      0.11710401	      3.43377264	    -11.88963074	     -7.49999987	      7.41640024	     -7.70933426	    -12.28937141	      2.35279588	      0.04106403	      5.79193273	      5.97312173	     -7.49999987	      3.45330625	     -0.31411775	      2.69383370	     36.69886571	     -3.60785068	     67.75453953	    126.56897484	     82.00781833	     47.49405464	      2.99866382	     68.83288107	    129.42661205	     67.65360839
